<svg width="180" height="29" viewBox="0 0 180 29" fill="none" xmlns="http://www.w3.org/2000/svg">
<path d="M0.359988 24.12H15.88C16.52 24.12 17.0133 24.0133 17.36 23.8C17.7067 23.56 17.96 23.28 18.12 22.96C18.3067 22.64 18.4133 22.3067 18.44 21.96C18.4933 21.6133 18.52 21.32 18.52 21.08C18.52 20.8133 18.4933 20.5333 18.44 20.24C18.3867 19.9467 18.2667 19.6667 18.08 19.4C17.8933 19.1067 17.6133 18.84 17.24 18.6C16.8933 18.3333 16.4133 18.1067 15.8 17.92L4.75999 14.44C4.65332 14.4133 4.46665 14.36 4.19999 14.28C3.95999 14.1733 3.67999 14.04 3.35999 13.88C3.03999 13.6933 2.70665 13.48 2.35999 13.24C2.01332 13 1.70665 12.7067 1.43999 12.36C1.11999 11.9867 0.866655 11.5733 0.679988 11.12C0.493321 10.6667 0.346655 10.2133 0.239988 9.76001C0.133321 9.28001 0.0666545 8.81334 0.0399878 8.36001C0.0133212 7.90667 -1.21593e-05 7.48001 -1.21593e-05 7.08001C-1.21593e-05 6.22667 0.0933212 5.33334 0.279988 4.40001C0.493321 3.46667 0.999988 2.62667 1.79999 1.88001C2.51999 1.18667 3.29332 0.760006 4.11999 0.600007C4.94665 0.413339 5.70665 0.320005 6.39999 0.320005H22.52V4.52001H8.19999C7.82666 4.52001 7.43999 4.56001 7.03999 4.64001C6.66665 4.69334 6.31999 4.86667 5.99999 5.16001C5.65332 5.48001 5.43999 5.85334 5.35999 6.28001C5.30665 6.70667 5.27999 7.05334 5.27999 7.32001C5.27999 7.93334 5.42665 8.52001 5.71999 9.08001C6.03999 9.64001 6.75999 10.1067 7.87999 10.48L18.12 13.72C19.0533 14.0133 19.84 14.32 20.48 14.64C21.1467 14.96 21.6933 15.32 22.12 15.72C22.5467 16.12 22.88 16.5733 23.12 17.08C23.36 17.56 23.5333 18.0533 23.64 18.56C23.7733 19.04 23.8533 19.5067 23.88 19.96C23.9333 20.4133 23.96 20.8 23.96 21.12C23.96 22 23.8667 22.9067 23.68 23.84C23.52 24.7467 23.1467 25.5733 22.56 26.32C21.8667 27.2267 21.0933 27.7867 20.24 28C19.3867 28.2133 18.4933 28.32 17.56 28.32H0.359988V24.12ZM41.2872 2.88001C41.3672 2.61334 41.4738 2.32001 41.6072 2.00001C41.7405 1.65334 41.9405 1.33334 42.2072 1.04001C42.5005 0.746673 42.8738 0.506673 43.3272 0.320005C43.8072 0.106673 44.4205 7.15256e-06 45.1672 7.15256e-06C45.8605 7.15256e-06 46.4338 0.0933401 46.8872 0.280006C47.3405 0.466673 47.7138 0.706673 48.0072 1.00001C48.3005 1.26667 48.5272 1.57334 48.6872 1.92001C48.8472 2.24001 48.9672 2.56001 49.0472 2.88001L54.2472 22.04C54.3005 22.1733 54.3805 22.32 54.4872 22.48C54.5938 22.64 54.7138 22.72 54.8472 22.72C54.9272 22.72 55.0338 22.6667 55.1672 22.56C55.3005 22.4533 55.4072 22.2267 55.4872 21.88L61.0472 0.320005H66.4072L59.6472 24.72C59.5138 25.1733 59.3538 25.64 59.1672 26.12C59.0072 26.5733 58.7538 26.9867 58.4072 27.36C58.0872 27.7333 57.6605 28.04 57.1272 28.28C56.6205 28.52 55.9538 28.64 55.1272 28.64C54.3538 28.64 53.7138 28.5333 53.2072 28.32C52.7005 28.1333 52.2738 27.88 51.9272 27.56C51.6072 27.2133 51.3405 26.8267 51.1272 26.4C50.9405 25.9733 50.7805 25.52 50.6472 25.04L45.7272 6.92001C45.5938 6.41334 45.4072 6.16001 45.1672 6.16001C45.0072 6.16001 44.8872 6.25334 44.8072 6.44001C44.7538 6.62667 44.7005 6.78667 44.6472 6.92001L39.6872 25.04C39.5805 25.44 39.4338 25.8533 39.2472 26.28C39.0872 26.68 38.8472 27.0667 38.5272 27.44C38.2072 27.7867 37.7805 28.08 37.2472 28.32C36.7405 28.5333 36.0738 28.64 35.2472 28.64C34.1272 28.64 33.1938 28.3733 32.4472 27.84C31.7005 27.3067 31.1138 26.2667 30.6872 24.72L23.9672 0.320005H29.3272L34.8872 21.88C34.9405 22.0133 34.9938 22.1867 35.0472 22.4C35.1272 22.6133 35.2738 22.72 35.4872 22.72C35.6205 22.72 35.7405 22.64 35.8472 22.48C35.9538 22.32 36.0338 22.1733 36.0872 22.04L41.2872 2.88001ZM73.7662 17.48H84.5262L79.9662 6.08001C79.8862 5.86667 79.7796 5.62667 79.6462 5.36001C79.5129 5.06667 79.3529 4.92001 79.1662 4.92001C78.9796 4.92001 78.8196 5.06667 78.6862 5.36001C78.5529 5.62667 78.4462 5.86667 78.3662 6.08001L73.7662 17.48ZM74.5662 3.16001C75.0729 1.98667 75.6462 1.17334 76.2862 0.720005C76.9529 0.240006 77.9129 7.15256e-06 79.1662 7.15256e-06C80.3662 7.15256e-06 81.2996 0.240006 81.9662 0.720005C82.6596 1.17334 83.2596 1.98667 83.7662 3.16001L94.3262 28.32H88.7662L85.8862 21.24H72.4062L69.5662 28.32H64.0062L74.5662 3.16001ZM95.5359 5.08001C95.5359 4.49334 95.5893 3.88001 95.6959 3.24001C95.8026 2.57334 96.1359 1.97334 96.6959 1.44001C97.2026 0.960005 97.7493 0.653338 98.3359 0.520005C98.9493 0.386672 99.5226 0.320005 100.056 0.320005H113.336C113.816 0.320005 114.323 0.346673 114.856 0.400007C115.389 0.426673 115.923 0.520006 116.456 0.680006C116.989 0.840005 117.496 1.09334 117.976 1.44001C118.483 1.78667 118.936 2.26667 119.336 2.88001C120.003 3.84001 120.403 4.85334 120.536 5.92001C120.669 6.98667 120.736 8.02667 120.736 9.04001C120.736 10.0533 120.669 11.1067 120.536 12.2C120.429 13.2667 120.096 14.32 119.536 15.36C119.349 15.7067 119.123 16.0533 118.856 16.4C118.589 16.72 118.243 17.0267 117.816 17.32C117.416 17.5867 116.923 17.8133 116.336 18C115.749 18.16 115.056 18.24 114.256 18.24H110.656V18.44L121.296 28.32H114.656L105.456 19.24C105.163 18.9467 104.869 18.5867 104.576 18.16C104.283 17.7067 104.136 17.28 104.136 16.88V16.24C104.136 15.68 104.336 15.2267 104.736 14.88C105.136 14.5067 105.723 14.32 106.496 14.32H111.776C112.229 14.32 112.723 14.2533 113.256 14.12C113.816 13.9867 114.283 13.64 114.656 13.08C114.789 12.8667 114.896 12.5867 114.976 12.24C115.083 11.8933 115.149 11.5467 115.176 11.2C115.229 10.8267 115.256 10.4667 115.256 10.12C115.283 9.77334 115.296 9.48001 115.296 9.24001C115.296 8.12001 115.203 7.26667 115.016 6.68001C114.829 6.09334 114.589 5.65334 114.296 5.36001C113.869 4.93334 113.376 4.69334 112.816 4.64001C112.256 4.56001 111.763 4.52001 111.336 4.52001H102.776C102.483 4.52001 102.229 4.54667 102.016 4.60001C101.803 4.62667 101.589 4.74667 101.376 4.96001C101.083 5.20001 100.909 5.45334 100.856 5.72001C100.829 5.96001 100.816 6.22667 100.816 6.52001V28.32H95.5359V5.08001ZM145.031 28.32L133.511 17.56C132.818 16.92 132.351 16.28 132.111 15.64C131.871 14.9733 131.751 14.4 131.751 13.92C131.751 13.3867 131.884 12.8267 132.151 12.24C132.418 11.6533 132.738 11.1733 133.111 10.8L143.711 0.320005H150.231L138.151 11.8C137.831 12.0933 137.524 12.4 137.231 12.72C136.964 13.0133 136.831 13.4 136.831 13.88C136.831 14.4933 137.004 15 137.351 15.4C137.724 15.8 138.098 16.1733 138.471 16.52L151.711 28.32H145.031ZM124.911 0.320005H130.191V28.32H124.911V0.320005ZM159.079 17.48H169.839L165.279 6.08001C165.199 5.86667 165.092 5.62667 164.959 5.36001C164.825 5.06667 164.665 4.92001 164.479 4.92001C164.292 4.92001 164.132 5.06667 163.999 5.36001C163.865 5.62667 163.759 5.86667 163.679 6.08001L159.079 17.48ZM159.879 3.16001C160.385 1.98667 160.959 1.17334 161.599 0.720005C162.265 0.240006 163.225 7.15256e-06 164.479 7.15256e-06C165.679 7.15256e-06 166.612 0.240006 167.279 0.720005C167.972 1.17334 168.572 1.98667 169.079 3.16001L179.639 28.32H174.079L171.199 21.24H157.719L154.879 28.32H149.319L159.879 3.16001Z" fill="white"/>
</svg>
