<svg width="155" height="155" viewBox="0 0 155 155" fill="none" xmlns="http://www.w3.org/2000/svg">
<circle cx="77.5" cy="77.5" r="76" stroke="#DD6208" stroke-width="3"/>
<path d="M57.6852 90.443C54.9558 82.8396 51.8061 76.7171 46.8403 71.8914C41.7848 66.9786 34.9763 63.5345 25.1597 61.0949C34.5881 58.4229 41.397 55.0333 46.1445 49.8694C50.8872 44.7105 53.4117 37.9572 54.6531 28.8902C58.5469 38.4737 62.5253 45.1596 67.661 49.8781C72.767 54.5691 78.8903 57.2027 86.8638 58.9405C77.1957 61.8985 70.4698 65.5007 65.8599 70.6329C61.2926 75.7178 58.9488 82.1372 57.6852 90.443Z" stroke="#DD6208" stroke-width="3"/>
<path d="M86.0382 103.042C91.4319 101.342 95.4886 99.1796 98.4193 96.0006C101.341 92.8313 103.01 88.7968 103.921 83.5995C106.262 89.0225 108.721 92.9844 111.826 95.8874C114.928 98.7871 118.576 100.536 123.14 101.717C117.667 103.566 113.677 105.825 110.831 108.948C108.013 112.04 106.438 115.846 105.523 120.581C103.82 116.243 101.792 112.641 98.7471 109.731C95.6453 106.765 91.5975 104.616 86.0382 103.042Z" stroke="#DD6208" stroke-width="3"/>
</svg>
