<svg width="157" height="170" viewBox="0 0 157 170" fill="none" xmlns="http://www.w3.org/2000/svg">
<path d="M77.18 1.50195C92.827 1.56798 108.482 2.99467 120.36 5.70801C126.308 7.06685 131.225 8.7299 134.705 10.6562C138.251 12.6188 139.941 14.6449 140.197 16.5732C141.334 25.174 141.547 48.0554 141.39 72.2236C141.234 96.3305 140.713 121.552 140.409 134.722C140.286 140.07 137.564 145.005 133.063 147.829C110.969 161.688 93.4387 168.263 76.471 168.173C59.5098 168.083 42.8577 161.33 22.5198 147.975C18.1071 145.077 15.5048 140.123 15.4603 134.801C15.2413 108.629 14.7126 34.7151 15.5403 16.4453C15.6324 14.4133 17.1303 12.353 20.4671 10.373C23.7622 8.41787 28.5205 6.75061 34.3528 5.40918C45.9953 2.73149 61.5308 1.43592 77.18 1.50195Z" stroke="#DD6208" stroke-width="3"/>
<path d="M125.187 44.4076C127.782 44.2631 129.971 46.3252 129.972 48.9095V70.6937C129.972 72.8774 128.395 74.7473 126.248 75.1107C88.1161 81.5653 65.0599 82.211 28.0889 75.2006C25.9953 74.8035 24.4756 72.9596 24.4756 70.8148V48.9135L24.4824 48.6732C24.6132 46.2014 26.7461 44.2703 29.2617 44.4115C65.3609 46.4397 88.3635 46.4567 125.187 44.4076Z" stroke="#DD6208" stroke-width="3"/>
<path d="M2.39551 47.8726H13.3174C13.5934 47.8727 13.8174 48.0965 13.8174 48.3726V66.0718C13.8174 66.3478 13.5934 66.5716 13.3174 66.5718H2.3623C2.06286 66.5718 1.80365 66.296 1.85352 65.9595C2.81457 59.5026 2.89192 54.9875 1.88184 48.5044C1.834 48.1974 2.03405 47.9437 2.28516 47.8853L2.39551 47.8726Z" stroke="#DD6208" stroke-width="3"/>
<path d="M154.604 66.5718H143.683C143.407 66.5716 143.183 66.3478 143.183 66.0718V48.3726C143.183 48.0965 143.407 47.8727 143.683 47.8726H154.638C154.937 47.8726 155.196 48.1483 155.146 48.4849C154.185 54.9418 154.108 59.4569 155.118 65.9399C155.166 66.2469 154.966 66.5007 154.715 66.5591L154.604 66.5718Z" stroke="#DD6208" stroke-width="3"/>
<path d="M60.5354 45.6166L70.2033 61.9065" stroke="#DD6208"/>
<path d="M60.5354 45.6166L70.2033 61.9065" stroke="#DD6208"/>
<path d="M60.5354 45.6166L70.2033 61.9065" stroke="#DD6208"/>
<path d="M68.5183 46.1992L74.6708 56.8007" stroke="#DD6208" stroke-linecap="round"/>
<path d="M68.5183 46.1992L74.6708 56.8007" stroke="#DD6208" stroke-linecap="round"/>
<path d="M68.5183 46.1992L74.6708 56.8007" stroke="#DD6208" stroke-linecap="round"/>
<path d="M68.5183 46.1992L74.6708 56.8007" stroke="#DD6208" stroke-linecap="round"/>
<path d="M68.5183 46.1992L74.6708 56.8007" stroke="#DD6208" stroke-linecap="round"/>
<path d="M68.5183 46.1992L74.6708 56.8007" stroke="#DD6208" stroke-linecap="round"/>
<path d="M70.2033 61.9065H77.2236" stroke="#DD6208" stroke-linecap="round"/>
<path d="M74.6707 56.8008H83.6057" stroke="#DD6208" stroke-linecap="round"/>
<path d="M77.2236 61.9065L87.0343 79.5438" stroke="#DD6208" stroke-linecap="round"/>
<path d="M83.6057 56.8008L95.0935 78.5" stroke="#DD6208" stroke-linecap="round"/>
</svg>
